<?xml version="1.0" encoding="UTF-8"?>
<svg width="200px" height="200px" viewBox="0 0 200 200" version="1.1" xmlns="http://www.w3.org/2000/svg">
    <title>Logo Açougue Gamificação</title>
    <g stroke="none" stroke-width="1" fill="none" fill-rule="evenodd">
        <circle fill="#DC4405" cx="100" cy="100" r="90"></circle>
        <path d="M100,30 C130,30 155,45 170,70 L140,85 C132.5,70 117.5,60 100,60 C82.5,60 67.5,70 60,85 L30,70 C45,45 70,30 100,30 Z" fill="#FFFFFF"></path>
        <path d="M60,115 C67.5,130 82.5,140 100,140 C117.5,140 132.5,130 140,115 L170,130 C155,155 130,170 100,170 C70,170 45,155 30,130 L60,115 Z" fill="#FFFFFF"></path>
        <text font-family="Barlow Condensed, sans-serif" font-size="24" font-weight="bold" fill="#FFFFFF" text-anchor="middle" x="100" y="105">PREMIUM CUTS</text>
    </g>
</svg>